<mxfile host="65bd71144e">
    <diagram id="FPg8xti8AjxyGfMuAJCn" name="Page-1">
        <mxGraphModel dx="4810" dy="2165" grid="1" gridSize="10" guides="1" tooltips="1" connect="1" arrows="1" fold="1" page="1" pageScale="1" pageWidth="850" pageHeight="1100" math="0" shadow="0">
            <root>
                <mxCell id="0"/>
                <mxCell id="1" parent="0"/>
                <mxCell id="2" value="Admin" style="shape=umlActor;verticalLabelPosition=bottom;verticalAlign=top;html=1;outlineConnect=0;strokeColor=#FF0000;fillColor=#FFFFCC;" parent="1" vertex="1">
                    <mxGeometry x="40" y="390" width="40" height="80" as="geometry"/>
                </mxCell>
                <mxCell id="3" value="Chef de famille" style="shape=umlActor;verticalLabelPosition=bottom;verticalAlign=top;html=1;outlineConnect=0;strokeColor=#FF0000;fillColor=#FFFFCC;" parent="1" vertex="1">
                    <mxGeometry x="41" y="949.75" width="40" height="80" as="geometry"/>
                </mxCell>
                <mxCell id="4" value="User" style="shape=umlActor;verticalLabelPosition=bottom;verticalAlign=top;html=1;outlineConnect=0;strokeColor=#FF0000;fillColor=#FFFFCC;" parent="1" vertex="1">
                    <mxGeometry x="41" y="1478.25" width="40" height="80" as="geometry"/>
                </mxCell>
                <mxCell id="5" value="&lt;font color=&quot;#000000&quot;&gt;&lt;u&gt;&lt;font style=&quot;font-size: 14px;&quot;&gt;PROJET CHEF D'OEUVRE&lt;br&gt;&lt;/font&gt;&lt;/u&gt;&lt;br&gt;User Case : Voyager dans le temps&lt;/font&gt;" style="rounded=1;whiteSpace=wrap;html=1;fillColor=#FFFFCC;strokeColor=#FF0000;" parent="1" vertex="1">
                    <mxGeometry x="60" y="10" width="1540" height="80" as="geometry"/>
                </mxCell>
                <mxCell id="6" value="" style="endArrow=open;endFill=1;endSize=12;html=1;rounded=0;fillColor=#FF0000;strokeColor=#FF0000;" parent="1" edge="1">
                    <mxGeometry width="160" relative="1" as="geometry">
                        <mxPoint x="60" y="500" as="sourcePoint"/>
                        <mxPoint x="60" y="940" as="targetPoint"/>
                    </mxGeometry>
                </mxCell>
                <mxCell id="7" value="" style="endArrow=open;endFill=1;endSize=12;html=1;rounded=0;fillColor=#FF0000;strokeColor=#FF0000;" parent="1" edge="1">
                    <mxGeometry width="160" relative="1" as="geometry">
                        <mxPoint x="60" y="1060" as="sourcePoint"/>
                        <mxPoint x="60" y="1480" as="targetPoint"/>
                    </mxGeometry>
                </mxCell>
                <mxCell id="8" value="Authentification" style="rounded=1;whiteSpace=wrap;html=1;arcSize=40;fontColor=#000000;fillColor=#ffffc0;strokeColor=#ff0000;" parent="1" vertex="1">
                    <mxGeometry x="240" y="410" width="120" height="40" as="geometry"/>
                </mxCell>
                <mxCell id="9" value="" style="edgeStyle=orthogonalEdgeStyle;html=1;verticalAlign=bottom;endArrow=open;endSize=8;strokeColor=#ff0000;rounded=0;entryX=0;entryY=0.5;entryDx=0;entryDy=0;" parent="1" target="8" edge="1">
                    <mxGeometry relative="1" as="geometry">
                        <mxPoint x="160" y="510" as="targetPoint"/>
                        <mxPoint x="90" y="430" as="sourcePoint"/>
                    </mxGeometry>
                </mxCell>
                <mxCell id="10" value="Authentification" style="rounded=1;whiteSpace=wrap;html=1;arcSize=40;fontColor=#000000;fillColor=#ffffc0;strokeColor=#ff0000;" parent="1" vertex="1">
                    <mxGeometry x="241" y="941.75" width="120" height="40" as="geometry"/>
                </mxCell>
                <mxCell id="11" value="" style="edgeStyle=orthogonalEdgeStyle;html=1;verticalAlign=bottom;endArrow=open;endSize=8;strokeColor=#ff0000;rounded=0;entryX=0;entryY=0.5;entryDx=0;entryDy=0;" parent="1" edge="1">
                    <mxGeometry relative="1" as="geometry">
                        <mxPoint x="241" y="960.75" as="targetPoint"/>
                        <mxPoint x="91" y="960.75" as="sourcePoint"/>
                    </mxGeometry>
                </mxCell>
                <mxCell id="12" value="Authentification" style="rounded=1;whiteSpace=wrap;html=1;arcSize=40;fontColor=#000000;fillColor=#ffffc0;strokeColor=#ff0000;" parent="1" vertex="1">
                    <mxGeometry x="246" y="1468.25" width="115" height="40" as="geometry"/>
                </mxCell>
                <mxCell id="13" value="" style="edgeStyle=orthogonalEdgeStyle;html=1;verticalAlign=bottom;endArrow=open;endSize=8;strokeColor=#ff0000;rounded=0;entryX=0;entryY=0.5;entryDx=0;entryDy=0;" parent="1" target="12" edge="1">
                    <mxGeometry relative="1" as="geometry">
                        <mxPoint x="161" y="1568.25" as="targetPoint"/>
                        <mxPoint x="91" y="1488.25" as="sourcePoint"/>
                    </mxGeometry>
                </mxCell>
                <mxCell id="14" value="create family" style="rounded=1;whiteSpace=wrap;html=1;arcSize=40;fontColor=#000000;fillColor=#ffffc0;strokeColor=#ff0000;" parent="1" vertex="1">
                    <mxGeometry x="241" y="999.75" width="120" height="40" as="geometry"/>
                </mxCell>
                <mxCell id="15" value="" style="edgeStyle=orthogonalEdgeStyle;html=1;verticalAlign=bottom;endArrow=open;endSize=8;strokeColor=#ff0000;rounded=0;entryX=0;entryY=0.5;entryDx=0;entryDy=0;" parent="1" target="14" edge="1">
                    <mxGeometry relative="1" as="geometry">
                        <mxPoint x="161" y="1099.75" as="targetPoint"/>
                        <mxPoint x="91" y="1019.75" as="sourcePoint"/>
                    </mxGeometry>
                </mxCell>
                <mxCell id="16" value="créer un compte" style="rounded=1;whiteSpace=wrap;html=1;arcSize=40;fontColor=#000000;fillColor=#ffffc0;strokeColor=#ff0000;" parent="1" vertex="1">
                    <mxGeometry x="241" y="1528.25" width="120" height="40" as="geometry"/>
                </mxCell>
                <mxCell id="17" value="" style="edgeStyle=orthogonalEdgeStyle;html=1;verticalAlign=bottom;endArrow=open;endSize=8;strokeColor=#ff0000;rounded=0;entryX=0;entryY=0.5;entryDx=0;entryDy=0;" parent="1" target="16" edge="1">
                    <mxGeometry relative="1" as="geometry">
                        <mxPoint x="161" y="1628.25" as="targetPoint"/>
                        <mxPoint x="91" y="1548.25" as="sourcePoint"/>
                    </mxGeometry>
                </mxCell>
                <mxCell id="18" value="récupérer touts les albums" style="rounded=1;whiteSpace=wrap;html=1;arcSize=40;fontColor=#000000;fillColor=#ffffc0;strokeColor=#ff0000;" parent="1" vertex="1">
                    <mxGeometry x="720" y="200" width="160" height="40" as="geometry"/>
                </mxCell>
                <mxCell id="19" value="récupérer tous les chefs de famille de son album" style="rounded=1;whiteSpace=wrap;html=1;arcSize=40;fontColor=#000000;fillColor=#ffffc0;strokeColor=#ff0000;" parent="1" vertex="1">
                    <mxGeometry x="1440" y="700" width="160" height="40" as="geometry"/>
                </mxCell>
                <mxCell id="20" value="modifier un chef de famille de son album" style="rounded=1;whiteSpace=wrap;html=1;arcSize=40;fontColor=#000000;fillColor=#ffffc0;strokeColor=#ff0000;" parent="1" vertex="1">
                    <mxGeometry x="1440" y="1060.75" width="160" height="40" as="geometry"/>
                </mxCell>
                <mxCell id="21" value="modifier un album" style="rounded=1;whiteSpace=wrap;html=1;arcSize=40;fontColor=#000000;fillColor=#ffffc0;strokeColor=#ff0000;" parent="1" vertex="1">
                    <mxGeometry x="720" y="498.5" width="160" height="40" as="geometry"/>
                </mxCell>
                <mxCell id="22" value="supprimer une photo avec son info" style="rounded=1;whiteSpace=wrap;html=1;arcSize=40;fontColor=#000000;fillColor=#ffffc0;strokeColor=#ff0000;" parent="1" vertex="1">
                    <mxGeometry x="1440" y="1361" width="160" height="40" as="geometry"/>
                </mxCell>
                <mxCell id="23" value="modifier son album" style="rounded=1;whiteSpace=wrap;html=1;arcSize=40;fontColor=#000000;fillColor=#ffffc0;strokeColor=#ff0000;" parent="1" vertex="1">
                    <mxGeometry x="1440" y="999.75" width="160" height="40" as="geometry"/>
                </mxCell>
                <mxCell id="24" value="créer un album" style="rounded=1;whiteSpace=wrap;html=1;arcSize=40;fontColor=#000000;fillColor=#ffffc0;strokeColor=#ff0000;" parent="1" vertex="1">
                    <mxGeometry x="1440" y="580" width="160" height="40" as="geometry"/>
                </mxCell>
                <mxCell id="25" value="modifier une de ses information" style="rounded=1;whiteSpace=wrap;html=1;arcSize=40;fontColor=#000000;fillColor=#ffffc0;strokeColor=#ff0000;" parent="1" vertex="1">
                    <mxGeometry x="721" y="1439.5" width="160" height="40" as="geometry"/>
                </mxCell>
                <mxCell id="26" value="supprimer un chef de famille&amp;nbsp;de son album" style="rounded=1;whiteSpace=wrap;html=1;arcSize=40;fontColor=#000000;fillColor=#ffffc0;strokeColor=#ff0000;" parent="1" vertex="1">
                    <mxGeometry x="1440" y="1241" width="160" height="40" as="geometry"/>
                </mxCell>
                <mxCell id="27" value="créer un autre chef de famille pour son album" style="rounded=1;whiteSpace=wrap;html=1;arcSize=40;fontColor=#000000;fillColor=#ffffc0;strokeColor=#ff0000;" parent="1" vertex="1">
                    <mxGeometry x="1440" y="640" width="160" height="40" as="geometry"/>
                </mxCell>
                <mxCell id="28" value="créer une photo" style="rounded=1;whiteSpace=wrap;html=1;arcSize=40;fontColor=#000000;fillColor=#ffffc0;strokeColor=#ff0000;" parent="1" vertex="1">
                    <mxGeometry x="721" y="1259" width="160" height="40" as="geometry"/>
                </mxCell>
                <mxCell id="29" value="créer une information" style="rounded=1;whiteSpace=wrap;html=1;arcSize=40;fontColor=#000000;fillColor=#ffffc0;strokeColor=#ff0000;" parent="1" vertex="1">
                    <mxGeometry x="721" y="1319" width="160" height="40" as="geometry"/>
                </mxCell>
                <mxCell id="30" value="créer un commentaire" style="rounded=1;whiteSpace=wrap;html=1;arcSize=40;fontColor=#000000;fillColor=#ffffc0;strokeColor=#ff0000;" parent="1" vertex="1">
                    <mxGeometry x="721" y="1378.5" width="160" height="40" as="geometry"/>
                </mxCell>
                <mxCell id="31" value="modifier un de ses commentaire" style="rounded=1;whiteSpace=wrap;html=1;arcSize=40;fontColor=#000000;fillColor=#ffffc0;strokeColor=#ff0000;" parent="1" vertex="1">
                    <mxGeometry x="721" y="1499.5" width="160" height="40" as="geometry"/>
                </mxCell>
                <mxCell id="32" value="modifier son compte" style="rounded=1;whiteSpace=wrap;html=1;arcSize=40;fontColor=#000000;fillColor=#ffffc0;strokeColor=#ff0000;" parent="1" vertex="1">
                    <mxGeometry x="721" y="1559" width="160" height="40" as="geometry"/>
                </mxCell>
                <mxCell id="33" value="supprimer un de ses commentaire" style="rounded=1;whiteSpace=wrap;html=1;arcSize=40;fontColor=#000000;fillColor=#ffffc0;strokeColor=#ff0000;" parent="1" vertex="1">
                    <mxGeometry x="721" y="1619" width="160" height="40" as="geometry"/>
                </mxCell>
                <mxCell id="34" value="supprimer son compte" style="rounded=1;whiteSpace=wrap;html=1;arcSize=40;fontColor=#000000;fillColor=#ffffc0;strokeColor=#ff0000;" parent="1" vertex="1">
                    <mxGeometry x="721" y="1679.5" width="160" height="40" as="geometry"/>
                </mxCell>
                <mxCell id="35" value="supprimer un chef de famille" style="rounded=1;whiteSpace=wrap;html=1;arcSize=40;fontColor=#000000;fillColor=#ffffc0;strokeColor=#ff0000;" parent="1" vertex="1">
                    <mxGeometry x="721" y="619.5" width="160" height="40" as="geometry"/>
                </mxCell>
                <mxCell id="36" value="créer un autre admin" style="rounded=1;whiteSpace=wrap;html=1;arcSize=40;fontColor=#000000;fillColor=#ffffc0;strokeColor=#ff0000;" parent="1" vertex="1">
                    <mxGeometry x="720" y="140" width="160" height="40" as="geometry"/>
                </mxCell>
                <mxCell id="37" value="supprimer un album" style="rounded=1;whiteSpace=wrap;html=1;arcSize=40;fontColor=#000000;fillColor=#ffffc0;strokeColor=#ff0000;" parent="1" vertex="1">
                    <mxGeometry x="1440" y="1181" width="160" height="40" as="geometry"/>
                </mxCell>
                <mxCell id="38" style="edgeStyle=orthogonalEdgeStyle;rounded=0;orthogonalLoop=1;jettySize=auto;html=1;exitX=0.5;exitY=1;exitDx=0;exitDy=0;" parent="1" source="5" target="5" edge="1">
                    <mxGeometry relative="1" as="geometry"/>
                </mxCell>
                <mxCell id="39" value="supprimer un admin" style="rounded=1;whiteSpace=wrap;html=1;arcSize=40;fontColor=#000000;fillColor=#ffffc0;strokeColor=#ff0000;" parent="1" vertex="1">
                    <mxGeometry x="721" y="559.5" width="160" height="40" as="geometry"/>
                </mxCell>
                <mxCell id="40" value="modifier un admin" style="rounded=1;whiteSpace=wrap;html=1;arcSize=40;fontColor=#000000;fillColor=#ffffc0;strokeColor=#ff0000;" parent="1" vertex="1">
                    <mxGeometry x="720" y="379.5" width="160" height="40" as="geometry"/>
                </mxCell>
                <mxCell id="41" value="récupérer tous les admins" style="rounded=1;whiteSpace=wrap;html=1;arcSize=40;fontColor=#000000;fillColor=#ffffc0;strokeColor=#ff0000;" parent="1" vertex="1">
                    <mxGeometry x="720" y="259" width="160" height="40" as="geometry"/>
                </mxCell>
                <mxCell id="42" value="récupérer un admin" style="rounded=1;whiteSpace=wrap;html=1;arcSize=40;fontColor=#000000;fillColor=#ffffc0;strokeColor=#ff0000;" parent="1" vertex="1">
                    <mxGeometry x="720" y="319.5" width="160" height="40" as="geometry"/>
                </mxCell>
                <mxCell id="43" value="récupérer son album" style="rounded=1;whiteSpace=wrap;html=1;arcSize=40;fontColor=#000000;fillColor=#ffffc0;strokeColor=#ff0000;" parent="1" vertex="1">
                    <mxGeometry x="1440" y="820" width="160" height="40" as="geometry"/>
                </mxCell>
                <mxCell id="44" value="récupérer un chef de famille de son album" style="rounded=1;whiteSpace=wrap;html=1;arcSize=40;fontColor=#000000;fillColor=#ffffc0;strokeColor=#ff0000;" parent="1" vertex="1">
                    <mxGeometry x="1440" y="880" width="160" height="40" as="geometry"/>
                </mxCell>
                <mxCell id="45" value="récupérer toutes les users de son album" style="rounded=1;whiteSpace=wrap;html=1;arcSize=40;fontColor=#000000;fillColor=#ffffc0;strokeColor=#ff0000;" parent="1" vertex="1">
                    <mxGeometry x="1440" y="759.5" width="160" height="40" as="geometry"/>
                </mxCell>
                <mxCell id="46" value="modifier un user&amp;nbsp;de son album" style="rounded=1;whiteSpace=wrap;html=1;arcSize=40;fontColor=#000000;fillColor=#ffffc0;strokeColor=#ff0000;" parent="1" vertex="1">
                    <mxGeometry x="1440" y="1120.25" width="160" height="40" as="geometry"/>
                </mxCell>
                <mxCell id="47" value="supprimer un user&amp;nbsp;de son album" style="rounded=1;whiteSpace=wrap;html=1;arcSize=40;fontColor=#000000;fillColor=#ffffc0;strokeColor=#ff0000;" parent="1" vertex="1">
                    <mxGeometry x="1440" y="1300.5" width="160" height="40" as="geometry"/>
                </mxCell>
                <mxCell id="48" value="récupérer un user de son album" style="rounded=1;whiteSpace=wrap;html=1;arcSize=40;fontColor=#000000;fillColor=#ffffc0;strokeColor=#ff0000;" parent="1" vertex="1">
                    <mxGeometry x="1440" y="939.5" width="160" height="40" as="geometry"/>
                </mxCell>
                <mxCell id="49" value="supprimer un admin" style="rounded=1;whiteSpace=wrap;html=1;arcSize=40;fontColor=#000000;fillColor=#ffffc0;strokeColor=#ff0000;" parent="1" vertex="1">
                    <mxGeometry x="720" y="439.5" width="160" height="40" as="geometry"/>
                </mxCell>
                <mxCell id="50" value="Include" style="endArrow=open;endSize=12;dashed=1;html=1;rounded=0;exitX=0;exitY=0.5;exitDx=0;exitDy=0;entryX=1;entryY=0.5;entryDx=0;entryDy=0;" parent="1" source="48" target="10" edge="1">
                    <mxGeometry x="-0.8517" width="160" relative="1" as="geometry">
                        <mxPoint x="1130" y="1150" as="sourcePoint"/>
                        <mxPoint x="1290" y="1150" as="targetPoint"/>
                        <Array as="points">
                            <mxPoint x="910" y="962"/>
                        </Array>
                        <mxPoint as="offset"/>
                    </mxGeometry>
                </mxCell>
                <mxCell id="51" value="Include" style="endArrow=open;endSize=12;dashed=1;html=1;rounded=0;exitX=0;exitY=0.5;exitDx=0;exitDy=0;entryX=1;entryY=0.5;entryDx=0;entryDy=0;" parent="1" source="23" target="10" edge="1">
                    <mxGeometry x="-0.8593" width="160" relative="1" as="geometry">
                        <mxPoint x="1450" y="970" as="sourcePoint"/>
                        <mxPoint x="371" y="972" as="targetPoint"/>
                        <Array as="points">
                            <mxPoint x="1240" y="1020"/>
                            <mxPoint x="1240" y="960"/>
                        </Array>
                        <mxPoint as="offset"/>
                    </mxGeometry>
                </mxCell>
                <mxCell id="52" value="Include" style="endArrow=open;endSize=12;dashed=1;html=1;rounded=0;exitX=0;exitY=0.5;exitDx=0;exitDy=0;entryX=1;entryY=0.5;entryDx=0;entryDy=0;" parent="1" source="20" target="10" edge="1">
                    <mxGeometry x="-0.8663" y="-1" width="160" relative="1" as="geometry">
                        <mxPoint x="1450" y="1030" as="sourcePoint"/>
                        <mxPoint x="371" y="972" as="targetPoint"/>
                        <Array as="points">
                            <mxPoint x="1200" y="1080"/>
                            <mxPoint x="1200" y="960"/>
                        </Array>
                        <mxPoint as="offset"/>
                    </mxGeometry>
                </mxCell>
                <mxCell id="53" value="Include" style="endArrow=open;endSize=12;dashed=1;html=1;rounded=0;exitX=0;exitY=0.5;exitDx=0;exitDy=0;entryX=1;entryY=0.5;entryDx=0;entryDy=0;" parent="1" source="46" target="10" edge="1">
                    <mxGeometry x="-0.8729" width="160" relative="1" as="geometry">
                        <mxPoint x="1460" y="1040" as="sourcePoint"/>
                        <mxPoint x="381" y="982" as="targetPoint"/>
                        <Array as="points">
                            <mxPoint x="1160" y="1140"/>
                            <mxPoint x="1160" y="960"/>
                        </Array>
                        <mxPoint as="offset"/>
                    </mxGeometry>
                </mxCell>
                <mxCell id="54" value="Include" style="endArrow=open;endSize=12;dashed=1;html=1;rounded=0;exitX=0;exitY=0.5;exitDx=0;exitDy=0;entryX=1;entryY=0.5;entryDx=0;entryDy=0;" parent="1" source="37" target="10" edge="1">
                    <mxGeometry x="-0.8787" y="-1" width="160" relative="1" as="geometry">
                        <mxPoint x="1470" y="1050" as="sourcePoint"/>
                        <mxPoint x="391" y="992" as="targetPoint"/>
                        <Array as="points">
                            <mxPoint x="1120" y="1200"/>
                            <mxPoint x="1120" y="960"/>
                        </Array>
                        <mxPoint as="offset"/>
                    </mxGeometry>
                </mxCell>
                <mxCell id="55" value="Include" style="endArrow=open;endSize=12;dashed=1;html=1;rounded=0;entryX=1;entryY=0.5;entryDx=0;entryDy=0;exitX=0;exitY=0.5;exitDx=0;exitDy=0;" parent="1" source="26" target="10" edge="1">
                    <mxGeometry x="-0.884" y="-1" width="160" relative="1" as="geometry">
                        <mxPoint x="1420" y="1240" as="sourcePoint"/>
                        <mxPoint x="401" y="1204" as="targetPoint"/>
                        <Array as="points">
                            <mxPoint x="1080" y="1260"/>
                            <mxPoint x="1080" y="960"/>
                        </Array>
                        <mxPoint as="offset"/>
                    </mxGeometry>
                </mxCell>
                <mxCell id="56" value="Include" style="endArrow=open;endSize=12;dashed=1;html=1;rounded=0;entryX=1;entryY=0.5;entryDx=0;entryDy=0;exitX=0;exitY=0.5;exitDx=0;exitDy=0;" parent="1" source="47" target="10" edge="1">
                    <mxGeometry x="-0.8888" width="160" relative="1" as="geometry">
                        <mxPoint x="1450" y="1271" as="sourcePoint"/>
                        <mxPoint x="371" y="972" as="targetPoint"/>
                        <Array as="points">
                            <mxPoint x="1040" y="1320"/>
                            <mxPoint x="1040" y="960"/>
                        </Array>
                        <mxPoint as="offset"/>
                    </mxGeometry>
                </mxCell>
                <mxCell id="57" value="Include" style="endArrow=open;endSize=12;dashed=1;html=1;rounded=0;entryX=1;entryY=0.5;entryDx=0;entryDy=0;exitX=0;exitY=0.5;exitDx=0;exitDy=0;" parent="1" source="22" target="10" edge="1">
                    <mxGeometry x="-0.8933" width="160" relative="1" as="geometry">
                        <mxPoint x="1460" y="1281" as="sourcePoint"/>
                        <mxPoint x="381" y="982" as="targetPoint"/>
                        <Array as="points">
                            <mxPoint x="1000" y="1381"/>
                            <mxPoint x="1000" y="960"/>
                        </Array>
                        <mxPoint as="offset"/>
                    </mxGeometry>
                </mxCell>
                <mxCell id="58" value="Include" style="endArrow=open;endSize=12;dashed=1;html=1;rounded=0;exitX=0;exitY=0.5;exitDx=0;exitDy=0;entryX=1;entryY=0.5;entryDx=0;entryDy=0;" parent="1" source="44" target="10" edge="1">
                    <mxGeometry x="-0.8595" width="160" relative="1" as="geometry">
                        <mxPoint x="1450" y="970" as="sourcePoint"/>
                        <mxPoint x="371" y="972" as="targetPoint"/>
                        <Array as="points">
                            <mxPoint x="1240" y="900"/>
                            <mxPoint x="1240" y="960"/>
                        </Array>
                        <mxPoint as="offset"/>
                    </mxGeometry>
                </mxCell>
                <mxCell id="59" value="Include" style="endArrow=open;endSize=12;dashed=1;html=1;rounded=0;exitX=0;exitY=0.5;exitDx=0;exitDy=0;entryX=1;entryY=0.5;entryDx=0;entryDy=0;" parent="1" source="43" target="10" edge="1">
                    <mxGeometry x="-0.8666" width="160" relative="1" as="geometry">
                        <mxPoint x="1450" y="856" as="sourcePoint"/>
                        <mxPoint x="371" y="918" as="targetPoint"/>
                        <Array as="points">
                            <mxPoint x="1200" y="840"/>
                            <mxPoint x="1200" y="960"/>
                        </Array>
                        <mxPoint as="offset"/>
                    </mxGeometry>
                </mxCell>
                <mxCell id="60" value="Include" style="endArrow=open;endSize=12;dashed=1;html=1;rounded=0;exitX=0;exitY=0.5;exitDx=0;exitDy=0;entryX=1;entryY=0.5;entryDx=0;entryDy=0;" parent="1" source="45" target="10" edge="1">
                    <mxGeometry x="-0.8729" width="160" relative="1" as="geometry">
                        <mxPoint x="1450" y="850" as="sourcePoint"/>
                        <mxPoint x="371" y="972" as="targetPoint"/>
                        <Array as="points">
                            <mxPoint x="1160" y="780"/>
                            <mxPoint x="1160" y="960"/>
                        </Array>
                        <mxPoint as="offset"/>
                    </mxGeometry>
                </mxCell>
                <mxCell id="61" value="Include" style="endArrow=open;endSize=12;dashed=1;html=1;rounded=0;exitX=0;exitY=0.5;exitDx=0;exitDy=0;entryX=1;entryY=0.5;entryDx=0;entryDy=0;" parent="1" source="19" target="10" edge="1">
                    <mxGeometry x="-0.8787" width="160" relative="1" as="geometry">
                        <mxPoint x="1460" y="860" as="sourcePoint"/>
                        <mxPoint x="381" y="982" as="targetPoint"/>
                        <Array as="points">
                            <mxPoint x="1120" y="720"/>
                            <mxPoint x="1120" y="960"/>
                        </Array>
                        <mxPoint as="offset"/>
                    </mxGeometry>
                </mxCell>
                <mxCell id="63" value="Include" style="endArrow=open;endSize=12;dashed=1;html=1;rounded=0;exitX=0;exitY=0.5;exitDx=0;exitDy=0;entryX=1;entryY=0.5;entryDx=0;entryDy=0;" parent="1" source="27" target="10" edge="1">
                    <mxGeometry x="-0.8888" width="160" relative="1" as="geometry">
                        <mxPoint x="1450" y="670" as="sourcePoint"/>
                        <mxPoint x="371" y="972" as="targetPoint"/>
                        <Array as="points">
                            <mxPoint x="1080" y="660"/>
                            <mxPoint x="1080" y="962"/>
                            <mxPoint x="1040" y="960"/>
                        </Array>
                        <mxPoint as="offset"/>
                    </mxGeometry>
                </mxCell>
                <mxCell id="64" value="Include" style="endArrow=open;endSize=12;dashed=1;html=1;rounded=0;exitX=0;exitY=0.5;exitDx=0;exitDy=0;entryX=1;entryY=0.5;entryDx=0;entryDy=0;" parent="1" source="24" target="10" edge="1">
                    <mxGeometry x="-0.8933" width="160" relative="1" as="geometry">
                        <mxPoint x="1460" y="680" as="sourcePoint"/>
                        <mxPoint x="410" y="900" as="targetPoint"/>
                        <Array as="points">
                            <mxPoint x="1040" y="600"/>
                            <mxPoint x="1040" y="962"/>
                        </Array>
                        <mxPoint as="offset"/>
                    </mxGeometry>
                </mxCell>
                <mxCell id="65" value="Include" style="endArrow=open;endSize=12;dashed=1;html=1;rounded=0;exitX=0;exitY=0.25;exitDx=0;exitDy=0;entryX=1;entryY=0.5;entryDx=0;entryDy=0;" parent="1" source="40" target="8" edge="1">
                    <mxGeometry x="-0.7" width="160" relative="1" as="geometry">
                        <mxPoint x="1450" y="970" as="sourcePoint"/>
                        <mxPoint x="371" y="972" as="targetPoint"/>
                        <Array as="points">
                            <mxPoint x="600" y="390"/>
                            <mxPoint x="600" y="430"/>
                        </Array>
                        <mxPoint as="offset"/>
                    </mxGeometry>
                </mxCell>
                <mxCell id="66" value="Include" style="endArrow=open;endSize=12;dashed=1;html=1;rounded=0;exitX=0;exitY=0.5;exitDx=0;exitDy=0;" parent="1" source="42" edge="1">
                    <mxGeometry x="-0.7333" width="160" relative="1" as="geometry">
                        <mxPoint x="730" y="400" as="sourcePoint"/>
                        <mxPoint x="360" y="430" as="targetPoint"/>
                        <Array as="points">
                            <mxPoint x="560" y="340"/>
                            <mxPoint x="560" y="430"/>
                        </Array>
                        <mxPoint as="offset"/>
                    </mxGeometry>
                </mxCell>
                <mxCell id="67" value="Include" style="endArrow=open;endSize=12;dashed=1;html=1;rounded=0;exitX=0;exitY=0.5;exitDx=0;exitDy=0;entryX=1;entryY=0.5;entryDx=0;entryDy=0;" parent="1" source="41" target="8" edge="1">
                    <mxGeometry x="-0.7652" y="1" width="160" relative="1" as="geometry">
                        <mxPoint x="730" y="350" as="sourcePoint"/>
                        <mxPoint x="370" y="440" as="targetPoint"/>
                        <Array as="points">
                            <mxPoint x="520" y="279"/>
                            <mxPoint x="520" y="430"/>
                        </Array>
                        <mxPoint as="offset"/>
                    </mxGeometry>
                </mxCell>
                <mxCell id="68" value="Include" style="endArrow=open;endSize=12;dashed=1;html=1;rounded=0;exitX=0;exitY=0.5;exitDx=0;exitDy=0;entryX=1;entryY=0.5;entryDx=0;entryDy=0;" parent="1" source="36" target="8" edge="1">
                    <mxGeometry x="-0.7895" width="160" relative="1" as="geometry">
                        <mxPoint x="730" y="289" as="sourcePoint"/>
                        <mxPoint x="370" y="460" as="targetPoint"/>
                        <Array as="points">
                            <mxPoint x="440" y="160"/>
                            <mxPoint x="440" y="430"/>
                        </Array>
                        <mxPoint as="offset"/>
                    </mxGeometry>
                </mxCell>
                <mxCell id="69" value="Include" style="endArrow=open;endSize=12;dashed=1;html=1;rounded=0;exitX=0;exitY=0.5;exitDx=0;exitDy=0;entryX=1;entryY=0.5;entryDx=0;entryDy=0;" parent="1" source="49" target="8" edge="1">
                    <mxGeometry x="-0.7" width="160" relative="1" as="geometry">
                        <mxPoint x="730" y="400" as="sourcePoint"/>
                        <mxPoint x="370" y="440" as="targetPoint"/>
                        <Array as="points">
                            <mxPoint x="600" y="460"/>
                            <mxPoint x="600" y="430"/>
                        </Array>
                        <mxPoint as="offset"/>
                    </mxGeometry>
                </mxCell>
                <mxCell id="70" value="Include" style="endArrow=open;endSize=12;dashed=1;html=1;rounded=0;exitX=0;exitY=0.5;exitDx=0;exitDy=0;entryX=1;entryY=0.5;entryDx=0;entryDy=0;" parent="1" source="21" target="8" edge="1">
                    <mxGeometry x="-0.7333" y="1" width="160" relative="1" as="geometry">
                        <mxPoint x="730" y="470" as="sourcePoint"/>
                        <mxPoint x="370" y="440" as="targetPoint"/>
                        <Array as="points">
                            <mxPoint x="560" y="520"/>
                            <mxPoint x="560" y="430"/>
                        </Array>
                        <mxPoint as="offset"/>
                    </mxGeometry>
                </mxCell>
                <mxCell id="71" value="Include" style="endArrow=open;endSize=12;dashed=1;html=1;rounded=0;entryX=1;entryY=0.5;entryDx=0;entryDy=0;exitX=0;exitY=0.5;exitDx=0;exitDy=0;" parent="1" source="39" target="8" edge="1">
                    <mxGeometry x="-0.7612" width="160" relative="1" as="geometry">
                        <mxPoint x="700" y="600" as="sourcePoint"/>
                        <mxPoint x="370" y="440" as="targetPoint"/>
                        <Array as="points">
                            <mxPoint x="520" y="580"/>
                            <mxPoint x="520" y="430"/>
                        </Array>
                        <mxPoint as="offset"/>
                    </mxGeometry>
                </mxCell>
                <mxCell id="72" value="Include" style="endArrow=open;endSize=12;dashed=1;html=1;rounded=0;entryX=1;entryY=0.5;entryDx=0;entryDy=0;exitX=0;exitY=0.5;exitDx=0;exitDy=0;" parent="1" source="35" target="8" edge="1">
                    <mxGeometry x="-0.7863" width="160" relative="1" as="geometry">
                        <mxPoint x="731" y="590" as="sourcePoint"/>
                        <mxPoint x="370" y="440" as="targetPoint"/>
                        <Array as="points">
                            <mxPoint x="480" y="640"/>
                            <mxPoint x="480" y="430"/>
                        </Array>
                        <mxPoint as="offset"/>
                    </mxGeometry>
                </mxCell>
                <mxCell id="73" value="Include" style="endArrow=open;endSize=12;dashed=1;html=1;rounded=0;entryX=1;entryY=0.5;entryDx=0;entryDy=0;exitX=0;exitY=0.5;exitDx=0;exitDy=0;" parent="1" source="25" target="12" edge="1">
                    <mxGeometry x="-0.6872" width="160" relative="1" as="geometry">
                        <mxPoint x="690" y="1480" as="sourcePoint"/>
                        <mxPoint x="371" y="972" as="targetPoint"/>
                        <Array as="points">
                            <mxPoint x="600" y="1460"/>
                            <mxPoint x="600" y="1490"/>
                        </Array>
                        <mxPoint as="offset"/>
                    </mxGeometry>
                </mxCell>
                <mxCell id="74" value="Include" style="endArrow=open;endSize=12;dashed=1;html=1;rounded=0;entryX=1;entryY=0.5;entryDx=0;entryDy=0;exitX=0;exitY=0.5;exitDx=0;exitDy=0;" parent="1" source="30" target="12" edge="1">
                    <mxGeometry x="-0.7288" y="1" width="160" relative="1" as="geometry">
                        <mxPoint x="731" y="1470" as="sourcePoint"/>
                        <mxPoint x="371" y="1498" as="targetPoint"/>
                        <Array as="points">
                            <mxPoint x="560" y="1400"/>
                            <mxPoint x="560" y="1490"/>
                        </Array>
                        <mxPoint as="offset"/>
                    </mxGeometry>
                </mxCell>
                <mxCell id="75" value="Include" style="endArrow=open;endSize=12;dashed=1;html=1;rounded=0;entryX=1;entryY=0.5;entryDx=0;entryDy=0;exitX=0;exitY=0.5;exitDx=0;exitDy=0;" parent="1" source="29" target="12" edge="1">
                    <mxGeometry x="-0.7613" y="1" width="160" relative="1" as="geometry">
                        <mxPoint x="731" y="1409" as="sourcePoint"/>
                        <mxPoint x="371" y="1498" as="targetPoint"/>
                        <Array as="points">
                            <mxPoint x="520" y="1339"/>
                            <mxPoint x="520" y="1490"/>
                        </Array>
                        <mxPoint as="offset"/>
                    </mxGeometry>
                </mxCell>
                <mxCell id="76" value="Include" style="endArrow=open;endSize=12;dashed=1;html=1;rounded=0;exitX=0;exitY=0.5;exitDx=0;exitDy=0;entryX=1;entryY=0.5;entryDx=0;entryDy=0;" parent="1" source="28" target="12" edge="1">
                    <mxGeometry x="-0.786" y="1" width="160" relative="1" as="geometry">
                        <mxPoint x="731" y="1349" as="sourcePoint"/>
                        <mxPoint x="370" y="1498" as="targetPoint"/>
                        <Array as="points">
                            <mxPoint x="480" y="1280"/>
                            <mxPoint x="480" y="1490"/>
                        </Array>
                        <mxPoint as="offset"/>
                    </mxGeometry>
                </mxCell>
                <mxCell id="77" value="Include" style="endArrow=open;endSize=12;dashed=1;html=1;rounded=0;entryX=1;entryY=0.5;entryDx=0;entryDy=0;exitX=0;exitY=0.5;exitDx=0;exitDy=0;" parent="1" source="31" target="12" edge="1">
                    <mxGeometry x="-0.6872" width="160" relative="1" as="geometry">
                        <mxPoint x="731" y="1470" as="sourcePoint"/>
                        <mxPoint x="371" y="1498" as="targetPoint"/>
                        <Array as="points">
                            <mxPoint x="600" y="1520"/>
                            <mxPoint x="600" y="1490"/>
                        </Array>
                        <mxPoint as="offset"/>
                    </mxGeometry>
                </mxCell>
                <mxCell id="78" value="Include" style="endArrow=open;endSize=12;dashed=1;html=1;rounded=0;entryX=1;entryY=0.5;entryDx=0;entryDy=0;exitX=0;exitY=0.5;exitDx=0;exitDy=0;" parent="1" source="32" target="12" edge="1">
                    <mxGeometry x="-0.7283" width="160" relative="1" as="geometry">
                        <mxPoint x="731" y="1530" as="sourcePoint"/>
                        <mxPoint x="371" y="1498" as="targetPoint"/>
                        <Array as="points">
                            <mxPoint x="560" y="1579"/>
                            <mxPoint x="560" y="1490"/>
                        </Array>
                        <mxPoint as="offset"/>
                    </mxGeometry>
                </mxCell>
                <mxCell id="79" value="Include" style="endArrow=open;endSize=12;dashed=1;html=1;rounded=0;entryX=1;entryY=0.5;entryDx=0;entryDy=0;exitX=0;exitY=0.5;exitDx=0;exitDy=0;" parent="1" source="33" target="12" edge="1">
                    <mxGeometry x="-0.7603" y="1" width="160" relative="1" as="geometry">
                        <mxPoint x="731" y="1589" as="sourcePoint"/>
                        <mxPoint x="371" y="1498" as="targetPoint"/>
                        <Array as="points">
                            <mxPoint x="520" y="1639"/>
                            <mxPoint x="520" y="1490"/>
                        </Array>
                        <mxPoint as="offset"/>
                    </mxGeometry>
                </mxCell>
                <mxCell id="80" value="Include" style="endArrow=open;endSize=12;dashed=1;html=1;rounded=0;entryX=1;entryY=0.5;entryDx=0;entryDy=0;exitX=0;exitY=0.5;exitDx=0;exitDy=0;" parent="1" source="34" target="12" edge="1">
                    <mxGeometry x="-0.786" width="160" relative="1" as="geometry">
                        <mxPoint x="731" y="1649" as="sourcePoint"/>
                        <mxPoint x="371" y="1498" as="targetPoint"/>
                        <Array as="points">
                            <mxPoint x="480" y="1700"/>
                            <mxPoint x="480" y="1490"/>
                        </Array>
                        <mxPoint as="offset"/>
                    </mxGeometry>
                </mxCell>
                <mxCell id="81" value="Include" style="endArrow=open;endSize=12;dashed=1;html=1;rounded=0;exitX=0;exitY=0.5;exitDx=0;exitDy=0;entryX=1;entryY=0.5;entryDx=0;entryDy=0;" edge="1" parent="1" source="18" target="8">
                    <mxGeometry x="-0.7895" width="160" relative="1" as="geometry">
                        <mxPoint x="730" y="170" as="sourcePoint"/>
                        <mxPoint x="380" y="470" as="targetPoint"/>
                        <Array as="points">
                            <mxPoint x="480" y="220"/>
                            <mxPoint x="480" y="430"/>
                        </Array>
                        <mxPoint as="offset"/>
                    </mxGeometry>
                </mxCell>
            </root>
        </mxGraphModel>
    </diagram>
</mxfile>